# xmcd
#
# Track frame offsets: 
#        150
#        14287
#        39126
#        60512
#        87967
#        126948
#        156948
#        180095
#
# Disc length: 2752 seconds
#
# Revision: 0
# Processed by: cddbd v1.5.2PL0 Copyright (c) Steve Scherf et al.
# Submitted via: ExactAudioCopy v0.99pb5
#
DISCID=530abe08
DTITLE=True Worshippers - Glory To Glory
DYEAR=2010
DGENRE=Contemporary Christian
TTITLE0=Opening
TTITLE1=Tinggi NamaMu Dipuji
TTITLE2=DenganMu Tuhan
TTITLE3=Kau Bebaskan
TTITLE4=Glory To Glory
TTITLE5=Tiada Ternilai
TTITLE6=S'lamanya Kau Tuhan
TTITLE7=SalibMu
EXTD=
EXTT0=
EXTT1=
EXTT2=
EXTT3=
EXTT4=
EXTT5=
EXTT6=
EXTT7=
PLAYORDER=
